<svg width="18" height="18" viewBox="0 0 18 18" fill="none" xmlns="http://www.w3.org/2000/svg">
<path d="M10.4421 1.92491L11.9087 4.85825C12.1087 5.26658 12.6421 5.65825 13.0921 5.73325L15.7504 6.17491C17.4504 6.45825 17.8504 7.69158 16.6254 8.90825L14.5587 10.9749C14.2087 11.3249 14.0171 11.9999 14.1254 12.4832L14.7171 15.0416C15.1837 17.0666 14.1087 17.8499 12.3171 16.7916L9.82541 15.3166C9.37541 15.0499 8.63375 15.0499 8.17541 15.3166L5.68375 16.7916C3.90041 17.8499 2.81708 17.0582 3.28375 15.0416L3.87541 12.4832C3.98375 11.9999 3.79208 11.3249 3.44208 10.9749L1.37541 8.90825C0.158746 7.69158 0.550413 6.45825 2.25041 6.17491L4.90875 5.73325C5.35041 5.65825 5.88375 5.26658 6.08375 4.85825L7.55041 1.92491C8.35041 0.333246 9.65041 0.333246 10.4421 1.92491Z" fill="#FFCD1A"/>
</svg>
